name Run_40002_IK.mot
datacolumns 164
datarows 4
range 1.03 1.06
endheader
time	         pelvis_tilt	         pelvis_list	     pelvis_rotation	           pelvis_tx	           pelvis_ty	           pelvis_tz	       hip_flexion_r	     hip_adduction_r	      hip_rotation_r	        knee_angle_r	       ankle_angle_r	       hip_flexion_l	     hip_adduction_l	      hip_rotation_l	        knee_angle_l	       ankle_angle_l	    lumbar_extension	      lumbar_bending	     lumbar_rotation	          arm_flex_r	           arm_add_r	           arm_rot_r	        elbow_flex_r	           pro_sup_r	          arm_flex_l	           arm_add_l	           arm_rot_l	        elbow_flex_l	           pro_sup_l	    subtalar_angle_r	         mtp_angle_r	    subtalar_angle_l	         mtp_angle_l	        wrist_flex_r	         wrist_dev_r	        wrist_flex_l	         wrist_dev_l	             LASI_tx	             LASI_ty	             LASI_tz	             RASI_tx	             RASI_ty	             RASI_tz	             LPSI_tx	             LPSI_ty	             LPSI_tz	             RPSI_tx	             RPSI_ty	             RPSI_tz	             RTH1_tx	             RTH1_ty	             RTH1_tz	             RTH2_tx	             RTH2_ty	             RTH2_tz	             RTH3_tx	             RTH3_ty	             RTH3_tz	             LTH1_tx	             LTH1_ty	             LTH1_tz	             LTH2_tx	             LTH2_ty	             LTH2_tz	             LTH3_tx	             LTH3_ty	             LTH3_tz	             RTB1_tx	             RTB1_ty	             RTB1_tz	             RTB2_tx	             RTB2_ty	             RTB2_tz	             RTB3_tx	             RTB3_ty	             RTB3_tz	             LTB1_tx	             LTB1_ty	             LTB1_tz	             LTB2_tx	             LTB2_ty	             LTB2_tz	             LTB3_tx	             LTB3_ty	             LTB3_tz	             RCAL_tx	             RCAL_ty	             RCAL_tz	             RTOE_tx	             RTOE_ty	             RTOE_tz	             RMT5_tx	             RMT5_ty	             RMT5_tz	             LCAL_tx	             LCAL_ty	             LCAL_tz	             LTOE_tx	             LTOE_ty	             LTOE_tz	             LMT5_tx	             LMT5_ty	             LMT5_tz	             LACR_tx	             LACR_ty	             LACR_tz	             RACR_tx	             RACR_ty	             RACR_tz	             CLAV_tx	             CLAV_ty	             CLAV_tz	               C7_tx	               C7_ty	               C7_tz	             RUA1_tx	             RUA1_ty	             RUA1_tz	             RUA2_tx	             RUA2_ty	             RUA2_tz	             RUA3_tx	             RUA3_ty	             RUA3_tz	             RLEL_tx	             RLEL_ty	             RLEL_tz	             RMEL_tx	             RMEL_ty	             RMEL_tz	             LUA1_tx	             LUA1_ty	             LUA1_tz	             LUA2_tx	             LUA2_ty	             LUA2_tz	             LUA3_tx	             LUA3_ty	             LUA3_tz	             LLEL_tx	             LLEL_ty	             LLEL_tz	             LMEL_tx	             LMEL_ty	             LMEL_tz	      RFAsuperior_tx	      RFAsuperior_ty	      RFAsuperior_tz	        RFAradius_tx	        RFAradius_ty	        RFAradius_tz	          RFAulna_tx	          RFAulna_ty	          RFAulna_tz	      LFAsuperior_tx	      LFAsuperior_ty	      LFAsuperior_tz	        LFAradius_tx	        LFAradius_ty	        LFAradius_tz	          LFAulna_tx	          LFAulna_ty	          LFAulna_tz	
1.03	        -13.03508403	         -0.22859737	         -4.55229548	          0.98985422	          0.99460442	         -0.34314218	         12.25730747	          6.06318615	          3.94497799	        -29.69128594	         17.55101318	         52.91886902	         -1.84955387	         -1.67704380	        -96.60955502	          5.77202868	         -0.39840917	          4.31659669	         12.49496855	        -17.19318782	        -23.22137971	         -7.42771948	        109.48091350	        110.70112025	        -39.52963785	        -16.48106954	         -3.13099649	        105.49231373	        105.75437980	          0.00000000	          0.00000000	          0.00000000	          0.00000000	          0.00000000	          0.00000000	          0.00000000	          0.00000000	          1.01464764	          1.03518976	         -0.47708734	          0.99836157	          1.03602971	         -0.21362081	          0.85616370	          1.09696489	         -0.40964855	          0.84719409	          1.09306078	         -0.29764711	          0.90941426	          0.91428070	         -0.17331405	          0.85207814	          0.77130758	         -0.20424122	          0.88859840	          0.61474798	         -0.22071593	          0.98910198	          0.91781750	         -0.52516073	          1.00413101	          0.76337407	         -0.49763444	          1.12731238	          0.68217943	         -0.49421432	          0.87519962	          0.36153499	         -0.30668487	          0.78754884	          0.34809091	         -0.23814866	          0.76024006	          0.20940173	         -0.32787785	          1.14322357	          0.49051891	         -0.43436499	          1.00466541	          0.49958073	         -0.48932780	          0.94974101	          0.38878135	         -0.43992143	          0.58440839	          0.13604536	         -0.32487885	          0.81296071	          0.07033227	         -0.36749231	          0.76565993	          0.05060501	         -0.26986225	          0.76453348	          0.41160070	         -0.41283410	          0.89454480	          0.21256106	         -0.42776522	          0.86547053	          0.21232473	         -0.48929132	          0.98296417	          1.52991618	         -0.48502231	          1.02894287	          1.49033671	         -0.16588504	          1.06917828	          1.46436955	         -0.30130948	          0.94782389	          1.53884939	         -0.32230222	          0.93931193	          1.38607888	         -0.09004865	          0.98690436	          1.32754412	         -0.07442980	          0.93290358	          1.24746424	         -0.02498060	          0.91233659	          1.18601226	          0.00497660	          0.89759092	          1.16091151	         -0.08129976	          0.86243791	          1.46210773	         -0.52527625	          0.86842842	          1.38966865	         -0.57176739	          0.77977054	          1.35154980	         -0.59162242	          0.74318167	          1.29644316	         -0.61687487	          0.72656336	          1.27249432	         -0.53102378	          1.01155234	          1.14518094	         -0.02377963	          1.13903286	          1.13955058	         -0.15236432	          1.13816663	          1.08649226	         -0.10746555	          0.78707755	          1.22148100	         -0.62011124	          0.94379775	          1.14587043	         -0.54133873	          0.91056037	          1.09650907	         -0.58247782	
1.04	        -12.97289244	          0.19271505	         -3.76408933	          0.99183611	          1.00260681	         -0.34298828	          8.17080096	          5.18716023	          3.69479878	        -26.38220074	         13.24270507	         53.85895965	         -1.18640346	         -1.64926915	        -92.35038318	          5.78092909	         -0.11441519	          3.46967961	         12.61656824	        -16.52295255	        -22.58794131	         -7.33144296	        112.17403346	        111.17903877	        -41.37974040	        -16.73252156	         -4.16549978	        107.74928667	        105.30683116	          0.00000000	          0.00000000	          0.00000000	          0.00000000	          0.00000000	          0.00000000	          0.00000000	          0.00000000	          1.01496658	          1.04379705	         -0.47669971	          1.00153798	          1.04294923	         -0.21309502	          0.85673463	          1.10522380	         -0.40772940	          0.84978838	          1.10025271	         -0.29552674	          0.91010979	          0.92037703	         -0.17426086	          0.84418194	          0.78065186	         -0.20315372	          0.87017628	          0.62300460	         -0.22062452	          0.99017353	          0.92958551	         -0.52613782	          1.00725696	          0.77391981	         -0.49497898	          1.13196808	          0.69617904	         -0.49301174	          0.84466059	          0.36988825	         -0.30581128	          0.75637019	          0.35904700	         -0.23726238	          0.72819717	          0.21968393	         -0.32681585	          1.16040257	          0.50140803	         -0.43489367	          1.02062517	          0.49747620	         -0.48654540	          0.97744872	          0.38080088	         -0.43713205	          0.55246029	          0.15187507	         -0.32264418	          0.77337139	          0.06972640	         -0.36741070	          0.72543816	          0.05180927	         -0.26997324	          0.79131197	          0.38442471	         -0.40803633	          0.94143725	          0.20069870	         -0.42591736	          0.90058619	          0.20031563	         -0.49430013	          0.98043393	          1.53867741	         -0.48505482	          1.03131040	          1.49972789	         -0.16759799	          1.06953626	          1.47328125	         -0.30381482	          0.94775445	          1.54659989	         -0.32223571	          0.94368405	          1.39463090	         -0.09064437	          0.99279448	          1.33633896	         -0.07626857	          0.94131801	          1.25502402	         -0.02653943	          0.92187545	          1.19270983	          0.00282326	          0.90589879	          1.16882988	         -0.08373814	          0.85845371	          1.47431009	         -0.52287183	          0.86223446	          1.40144192	         -0.56985595	          0.77260032	          1.36497691	         -0.58837874	          0.73384167	          1.31086778	         -0.61206555	          0.71936846	          1.28718041	         -0.52594295	          1.02202266	          1.15762565	         -0.02925147	          1.14612569	          1.16209245	         -0.16001332	          1.14994230	          1.10878384	         -0.11666950	          0.77800240	          1.23680705	         -0.61652276	          0.93731980	          1.16337047	         -0.54188932	          0.90385667	          1.11334912	         -0.58185813	
1.05	        -12.85334331	          0.57081841	         -3.00693771	          0.99446993	          1.01068781	         -0.34259015	          4.00351677	          4.39671268	          3.25026803	        -22.81007729	          7.86436477	         54.33493126	         -0.75038780	         -1.72569363	        -88.05630634	          6.06523407	          0.13677721	          2.65145913	         12.61659173	        -15.97139896	        -22.02837649	         -6.99300874	        114.94539449	        112.06667246	        -43.34163735	        -16.87427434	         -5.30154471	        109.94475774	        104.99205576	          0.00000000	          0.00000000	          0.00000000	          0.00000000	          0.00000000	          0.00000000	          0.00000000	          0.00000000	          1.01600416	          1.05275973	         -0.47654242	          1.00514489	          1.05010197	         -0.21258543	          0.85805577	          1.11379479	         -0.40601993	          0.85279202	          1.10767276	         -0.29346430	          0.91226124	          0.92644291	         -0.17534773	          0.83722153	          0.79054891	         -0.20177982	          0.85228312	          0.63287338	         -0.22013152	          0.99113491	          0.94098121	         -0.52716972	          1.00954428	          0.78455255	         -0.49216026	          1.13489153	          0.70905994	         -0.49170236	          0.81523708	          0.38005611	         -0.30356537	          0.72609071	          0.37171634	         -0.23565888	          0.69783190	          0.23133909	         -0.32478231	          1.17560462	          0.51152193	         -0.43601049	          1.03563053	          0.49433663	         -0.48340592	          1.00545534	          0.37299226	         -0.43426054	          0.52362780	          0.16930505	         -0.32047169	          0.73469453	          0.06880871	         -0.36724997	          0.68611162	          0.05329774	         -0.27017580	          0.82031508	          0.35692413	         -0.40220940	          0.98914461	          0.19085472	         -0.42373288	          0.92822528	          0.19585748	         -0.50618530	          0.97842213	          1.54754196	         -0.48497726	          1.03356636	          1.50918286	         -0.16942439	          1.06994541	          1.48243001	         -0.30610467	          0.94784178	          1.55455167	         -0.32207448	          0.94761638	          1.40347361	         -0.09142772	          0.99842512	          1.34545852	         -0.07806257	          0.94924715	          1.26329194	         -0.02777172	          0.93069168	          1.20014222	          0.00100390	          0.91326005	          1.17734197	         -0.08573363	          0.85523584	          1.48638568	         -0.52074250	          0.85701237	          1.41315395	         -0.56779001	          0.76621085	          1.37882589	         -0.58471344	          0.72544173	          1.32548712	         -0.60706620	          0.71306065	          1.30205014	         -0.52054568	          1.03121669	          1.17058523	         -0.03417046	          1.15133771	          1.18508002	         -0.16822729	          1.15946145	          1.13137213	         -0.12540569	          0.76956382	          1.25187052	         -0.61265266	          0.93140034	          1.18050156	         -0.54191615	          0.89768802	          1.12998407	         -0.58089626	
1.06	        -12.80248453	          1.09250573	         -2.22122773	          0.99713678	          1.01855838	         -0.34237212	          0.14822695	          3.49008824	          2.41713004	        -19.31227164	          1.78226942	         54.55425929	         -0.13006477	         -2.21116521	        -83.09235948	          6.64352799	          0.43297665	          1.69728622	         12.53272501	        -15.58036236	        -21.56344246	         -6.58040641	        117.73780569	        112.79138295	        -45.24555635	        -16.95838063	         -6.42299087	        111.98686007	        104.66623363	          0.00000000	          0.00000000	          0.00000000	          0.00000000	          0.00000000	          0.00000000	          0.00000000	          0.00000000	          1.01722027	          1.06178058	         -0.47645960	          1.00901079	          1.05718938	         -0.21192750	          0.85958927	          1.12228688	         -0.40436734	          0.85607014	          1.11498369	         -0.29134564	          0.91512556	          0.93242034	         -0.17630450	          0.83082077	          0.80088679	         -0.20004622	          0.83505470	          0.64410203	         -0.21930874	          0.99169489	          0.95150596	         -0.52823675	          1.01090364	          0.79473141	         -0.48930643	          1.13617652	          0.72036737	         -0.49006775	          0.78801219	          0.39133651	         -0.30005909	          0.69761594	          0.38530756	         -0.23353913	          0.67040892	          0.24346380	         -0.32176948	          1.18880210	          0.52044365	         -0.43657596	          1.05009440	          0.48970735	         -0.48037682	          1.03356485	          0.36537696	         -0.43127532	          0.49854281	          0.18788566	         -0.31857562	          0.69767387	          0.06806014	         -0.36712324	          0.64838131	          0.05556468	         -0.27038104	          0.85133651	          0.32979290	         -0.39599037	          1.03696585	          0.18307276	         -0.42072665	          0.96265285	          0.18811599	         -0.51138988	          0.97674855	          1.55621968	         -0.48475833	          1.03584233	          1.51826361	         -0.17128837	          1.07043044	          1.49119246	         -0.30817449	          0.94807892	          1.56223655	         -0.32184413	          0.95163607	          1.41235849	         -0.09185661	          1.00386595	          1.35453428	         -0.07973043	          0.95656485	          1.27194523	         -0.02855331	          0.93879648	          1.20801317	         -0.00030960	          0.91959724	          1.18604983	         -0.08699185	          0.85255765	          1.49784452	         -0.51867503	          0.85246420	          1.42456730	         -0.56566070	          0.76038405	          1.39270856	         -0.58051219	          0.71798332	          1.33987243	         -0.60191789	          0.70749256	          1.31635977	         -0.51510100	          1.03926479	          1.18394843	         -0.03856857	          1.15482293	          1.20767228	         -0.17555734	          1.16689293	          1.15371769	         -0.13339408	          0.76203963	          1.26657335	         -0.60860802	          0.92603831	          1.19686202	         -0.54156699	          0.89200747	          1.14584324	         -0.57956497	
